<svg class="h-6 w-6 fill-current text-gray-500" xmlns="http://www.w3.org/2000/svg" viewBox="0 0 20 20">
	<path d="M1 9.527c0-.436.124-.8.372-1.09.247-.291.62-.437 1.115-.437s.872.146 1.128.437c.257.29.385.654.385 1.09 0 .418-.128.769-.385 1.05-.256.282-.633.423-1.128.423-.496 0-.868-.141-1.115-.423C1.124 10.296 1 9.945 1 9.527zm7.5 0c0-.436.124-.8.372-1.09C9.12 8.146 9.492 8 9.987 8s.872.146 1.128.437c.257.29.385.654.385 1.09 0 .418-.128.769-.385 1.05-.256.282-.633.423-1.128.423-.495 0-.867-.141-1.115-.423-.248-.281-.372-.632-.372-1.05zm7.5 0c0-.436.124-.8.372-1.09.247-.291.62-.437 1.115-.437s.872.146 1.128.437c.257.29.385.654.385 1.09 0 .418-.128.769-.385 1.05-.256.282-.633.423-1.128.423-.495 0-.867-.141-1.115-.423-.247-.281-.372-.632-.372-1.05z" />
</svg>
