<svg class="h-6 w-6 fill-current text-gray-500" xmlns="http://www.w3.org/2000/svg" viewBox="0 0 20 20">
	<path d="M11.808 10.764a1.24 1.24 0 01.963.353l4.868 4.805a1.207 1.207 0 010 1.721 1.245 1.245 0 01-1.744 0l-4.868-4.803a1.206 1.206 0 01-.354-.993 5.49 5.49 0 01-3.192 1.015C4.451 12.861 2 10.426 2 7.431 2 4.435 4.45 2 7.481 2c3.031 0 5.481 2.435 5.481 5.43 0 1.256-.43 2.414-1.154 3.334zm-1.312-3.333A3.004 3.004 0 007.48 4.434a3.005 3.005 0 00-3.014 2.997 3.005 3.005 0 003.014 2.996 3.005 3.005 0 003.016-2.997v.001z" />
</svg>
